# xmcd CD database file
#
# Track frame offsets:
#	150
#	24312
#	45595
#	70932
#	93160
#	112995
#	141092
#	166005
#	190347
#	218807
#	240317
#	265052
#
# Disc length: 3960 seconds
#
# Revision: 11
# Processed by: cddbd v1.5.2PL0 Copyright (c) Steve Scherf et al.
# Submitted via: CDex 1.70beta3
#
DISCID=950f760c
DTITLE=CHAGE and ASKA - TREE
DYEAR=1991
DGENRE=JPop
TTITLE0=僕はこの瞳で嘘をつく
TTITLE1=SAY YES
TTITLE2=クルミを割れた日
TTITLE3=CAT WALK
TTITLE4=夜のうちに
TTITLE5=MOZART VIRUS DAY
TTITLE6=誰かさん ～CLOSE YOUR EYES～
TTITLE7=明け方の君
TTITLE8=CATCH and RELEASE
TTITLE9=BAD NEWS GOOD NEWS
TTITLE10=BIG TREE
TTITLE11=tomorrow
EXTD=YEAR: 1991
EXTT0=
EXTT1=
EXTT2=
EXTT3=
EXTT4=
EXTT5=
EXTT6=
EXTT7=
EXTT8=
EXTT9=
EXTT10=
EXTT11=
PLAYORDER=
